<?xml version="1.0" encoding="utf-8"?>
<!-- Generator: Adobe Illustrator 27.4.1, SVG Export Plug-In . SVG Version: 6.00 Build 0)  -->
<svg version="1.1" id="Layer_1" xmlns="http://www.w3.org/2000/svg" xmlns:xlink="http://www.w3.org/1999/xlink" x="0px" y="0px"
	 viewBox="0 0 165 165" style="enable-background:new 0 0 165 165;" xml:space="preserve">
<style type="text/css">
	.st0{fill:#0052ED;}
</style>
<g>
	<path class="st0" d="M157.4,125.7H7.5c-3.6,0-6.5-2.9-6.5-6.5V41.9c0-3.6,2.9-6.5,6.5-6.5h149.9c3.6,0,6.5,2.9,6.5,6.5v77.4
		C163.9,122.8,161,125.7,157.4,125.7z M7.5,37.6c-2.4,0-4.3,1.9-4.3,4.3v77.4c0,2.4,1.9,4.3,4.3,4.3h149.9c2.4,0,4.3-1.9,4.3-4.3
		V41.9c0-2.4-1.9-4.3-4.3-4.3H7.5z"/>
	<g>
		<rect x="18.1" y="61.8" class="st0" width="49" height="2.2"/>
		<rect x="18.1" y="71.3" class="st0" width="39.4" height="2.2"/>
		<path class="st0" d="M40.7,94.3H19.4c-1.3,0-2.4-1.1-2.4-2.4v-5.9c0-1.3,1.1-2.4,2.4-2.4h21.3c1.3,0,2.4,1.1,2.4,2.4v5.9
			C43.1,93.2,42,94.3,40.7,94.3z M19.4,85.7c-0.1,0-0.3,0.1-0.3,0.3v5.9c0,0.1,0.1,0.3,0.3,0.3h21.3c0.1,0,0.3-0.1,0.3-0.3v-5.9
			c0-0.1-0.1-0.3-0.3-0.3H19.4z"/>
	</g>
	<g>
		<path class="st0" d="M143.8,99.2H86.5c-3.6,0-6.5-2.9-6.5-6.5V64.4c0-3.6,2.9-6.5,6.5-6.5h57.3c3.6,0,6.5,2.9,6.5,6.5v28.4
			C150.3,96.3,147.4,99.2,143.8,99.2z M86.5,60.1c-2.4,0-4.3,1.9-4.3,4.3v28.4c0,2.4,1.9,4.3,4.3,4.3h57.3c2.4,0,4.3-1.9,4.3-4.3
			V64.4c0-2.4-1.9-4.3-4.3-4.3H86.5z"/>
		
			<rect x="114.5" y="41.5" transform="matrix(0.4728 -0.8812 0.8812 0.4728 -8.1213 143.1177)" class="st0" width="2.2" height="73.7"/>
		
			<rect x="78" y="77.6" transform="matrix(0.8802 -0.4746 0.4746 0.8802 -23.5868 63.8912)" class="st0" width="73.4" height="2.2"/>
	</g>
</g>
</svg>
