<svg xmlns="http://www.w3.org/2000/svg" width="220" height="220" fill="#fff" xmlns:v="https://vecta.io/nano"><path d="M164.115 80.832H58.939V53.399h105.176zM56.036 83.736h110.983V50.495H56.036zm63.803-18.072H69.321v2.904h50.517zm26.978 6.459h2.904v-3.556h3.556v-2.903h-3.556v-3.556h-2.904v3.556h-3.555v2.903h3.555zM58.939 94.365h105.176v27.433H58.939zm-2.903 30.337h110.983V91.461H56.036zm13.287-15.167h50.517v-2.904H69.323zm80.397-6.459h-2.904v3.556h-3.555v2.903h3.555v3.555h2.904v-3.555h3.556v-2.903h-3.556zm-90.781 31.347h105.176v27.433H58.939zm-2.903 30.337h110.983v-33.241H56.036zm13.287-15.169h50.517v-2.904H69.323zm80.397-6.458h-2.904v3.555h-3.555v2.904h3.555v3.556h2.904v-3.556h3.556v-2.904h-3.556z"/></svg>