<?xml version="1.0" encoding="utf-8"?><!-- Uploaded to: SVG Repo, www.svgrepo.com, Generator: SVG Repo Mixer Tools -->
<svg width="800px" height="800px" viewBox="-3.43 0 105.673 105.673" xmlns="http://www.w3.org/2000/svg">
  <path id="Path_25" data-name="Path 25" d="M268.357,368.58a6.818,6.818,0,0,0-.418-1.244c-.014-.041-.033-.094-.061-.16a2.129,2.129,0,0,0-.148-.293l-11.11-24.036a6.84,6.84,0,0,0-12.072-.66,6.836,6.836,0,0,0-9.5,2.152,6.834,6.834,0,0,0-6.691-.526,6.755,6.755,0,0,0-2.272,1.7l-6.019-13.022a6.843,6.843,0,1,0-12.423,5.742l9.946,21.52-.855-.779a6.843,6.843,0,0,0-10.515,8.759l20.871,25.674a6.713,6.713,0,0,0,1.475,1.326,15.159,15.159,0,0,0,9.143,2.561,37.828,37.828,0,0,0,15.369-3.794c9.533-4.453,15.726-13.109,15.8-21.165A13.458,13.458,0,0,0,268.357,368.58ZM251.4,389.874a33.95,33.95,0,0,1-13.692,3.423,11.249,11.249,0,0,1-6.778-1.786l-.1-.069a2.85,2.85,0,0,1-.638-.55l-20.872-25.679a2.846,2.846,0,0,1,2.2-4.638,2.838,2.838,0,0,1,2.211,1.052l.205.216,8.4,7.652a2,2,0,0,0,3.03-2.56c-.144-.22-.206-.326-.214-.346l-13.879-30.03a2.807,2.807,0,0,1-.264-1.191,2.84,2.84,0,0,1,1.65-2.582,2.794,2.794,0,0,1,1.19-.266,2.841,2.841,0,0,1,2.585,1.654l8.389,18.148a2,2,0,0,0,3.72-1.449,2.96,2.96,0,0,1-.136-.868,2.827,2.827,0,0,1,2.822-2.828,2.843,2.843,0,0,1,2.585,1.652l.556,1.2a2,2,0,0,0,3.748-1.358,2.714,2.714,0,0,1-.1-.727,2.838,2.838,0,0,1,5.417-1.186l.477,1.036a2,2,0,0,0,3.747-1.357,2.945,2.945,0,0,1-.1-.728,2.828,2.828,0,0,1,1.642-2.574,2.8,2.8,0,0,1,1.188-.264,2.842,2.842,0,0,1,2.587,1.654l11.147,24.113c.025.054.049.1.069.14l.024.059.039.086.014.032a2.859,2.859,0,0,1,.187.563l.032.122a9.448,9.448,0,0,1,.376,2.7C264.946,378.244,259.749,386.064,251.4,389.874Zm-45.019-37.262a2,2,0,0,0-1.394-2.46h0a19.2,19.2,0,1,1,24.127-21.026,19.779,19.779,0,0,1,.166,2.534c0,.255-.006.516-.016.784a2,2,0,0,0,4,.138c.009-.3.018-.606.018-.922a23.419,23.419,0,0,0-.2-3.055,23.11,23.11,0,0,0-7.425-14.139,1.954,1.954,0,0,0,.419-.395l4.555-5.937a2,2,0,0,0-3.174-2.436l-4.553,5.939a1.975,1.975,0,0,0-.276.512,23.074,23.074,0,0,0-12.517-3.71,23.372,23.372,0,0,0-3.062.2,23.087,23.087,0,0,0-14.137,7.422,2,2,0,0,0-.394-.418l-5.94-4.554a2,2,0,1,0-2.433,3.174l5.938,4.553a1.983,1.983,0,0,0,.513.273,23.121,23.121,0,0,0,3.914,29.718,1.979,1.979,0,0,0-.419.4l-4.554,5.941a2,2,0,1,0,3.173,2.432l4.556-5.939a1.98,1.98,0,0,0,.27-.5,23.151,23.151,0,0,0,6.391,2.87,2,2,0,0,0,2.459-1.395Zm-2.1-49.6a2,2,0,0,0,1.981,1.739,1.834,1.834,0,0,0,.265-.018,2,2,0,0,0,1.719-2.243l-1.2-9.131a2,2,0,0,0-3.965.522Zm34.675,26.811a2.123,2.123,0,0,0,.262-.017l9.129-1.205a2,2,0,0,0-.522-3.965l-9.131,1.205a2,2,0,0,0,.262,3.982Zm-58.027,3.637-9.129,1.2a2,2,0,0,0,.257,3.983,1.976,1.976,0,0,0,.265-.017l9.132-1.205a2,2,0,1,0-.525-3.965Z" transform="translate(-170.069 -291.625)" fill="#fff"/>
</svg>