<?xml version="1.0" encoding="UTF-8"?>
<svg id="Layer_1" data-name="Layer 1" xmlns="http://www.w3.org/2000/svg" viewBox="0 0 607.71 192">
  <defs>
    <style>
      .cls-1 {
        fill: #000918;
      }

      .cls-2 {
        fill: #ec2924;
      }

      .cls-3 {
        fill: #84adff;
      }

      .cls-4 {
        fill: #5786ff;
      }
    </style>
  </defs>
  <g>
    <polygon class="cls-3" points="73.28 27.29 33.61 50.19 33.61 96 73.28 73.1 112.96 50.19 73.28 27.29"/>
    <polygon class="cls-4" points="73.28 118.9 73.28 73.1 33.61 96 33.61 141.81 73.28 164.71 112.96 141.81 112.96 96 73.28 118.9"/>
    <polygon class="cls-2" points="112.96 50.19 73.28 73.1 112.96 96 112.96 141.81 152.62 118.9 152.62 73.1 112.96 50.19"/>
  </g>
  <g>
    <rect class="cls-1" x="324.08" y="73.06" width="14.37" height="52.43"/>
    <rect class="cls-1" x="323.56" y="48.93" width="15.41" height="14.37"/>
    <polygon class="cls-1" points="359.64 55.96 359.64 73.06 349.99 73.06 349.99 85.32 359.64 85.32 359.64 125.49 374.01 125.49 374.01 85.32 385.54 85.32 385.54 73.06 374.01 73.06 374.01 61.2 385.54 61.2 385.54 48.93 371.8 48.93 359.64 55.96"/>
    <path class="cls-1" d="m407.25,72.53l-12.17,7.03v39.43l12.17,7.03h22.34l12.17-7.03v-39.43l-12.17-7.03h-22.34Zm20.13,41.21h-17.94v-28.95h17.94v28.95Z"/>
    <polygon class="cls-1" points="471.84 77.37 464.37 73.06 457.48 73.06 457.48 125.49 471.85 125.49 471.85 85.32 489.89 85.32 489.89 73.06 479.32 73.06 471.84 77.37"/>
    <polygon class="cls-1" points="284.1 72.53 275.72 77.37 267.33 72.53 261.69 72.53 261.69 125.49 276.06 125.49 276.06 84.8 293.99 84.8 293.99 125.49 308.36 125.49 308.36 79.56 296.19 72.53 284.1 72.53"/>
    <polygon class="cls-1" points="231.59 113.74 213.66 113.74 213.66 73.06 199.29 73.06 199.29 118.99 211.46 126.02 224.13 126.02 231.57 121.71 231.58 121.72 231.59 121.71 231.59 121.72 239.03 126.02 245.96 126.02 245.96 73.06 231.59 73.06 231.59 113.74"/>
    <polygon class="cls-1" points="561.93 72.53 551.86 72.53 542.01 78.19 532.25 72.53 522.19 72.53 514.74 76.83 514.74 76.83 514.74 76.83 514.74 76.83 507.3 72.53 500.37 72.53 500.37 125.49 514.74 125.49 514.74 84.8 530.06 84.8 530.06 125.49 544.42 125.49 544.42 84.8 559.73 84.8 559.73 125.49 574.1 125.49 574.1 79.56 561.93 72.53"/>
  </g>
</svg>