<svg xmlns="http://www.w3.org/2000/svg" width="220" height="220" xmlns:v="https://vecta.io/nano"><defs><clipPath id="A"><path d="M0 165h165V0H0z"/></clipPath></defs><g clip-path="url(#A)" transform="matrix(1.333333 0 0 -1.333333 0 220)" fill="#0052ed"><path d="M43.309 56.687H6.481a2.37 2.37 0 0 0-2.368 2.368v28.722h41.564V59.055a2.37 2.37 0 0 0-2.368-2.368m0 54.501c.241 0 .469-.046.689-.114l-18.823-9.078-18.938 9.168c.081.008.16.024.244.024zm-15.632-10.403l17.912 8.64a2.32 2.32 0 0 0 .088-.604v-16.75zm-2.504-1.207l19.878-9.623H5.223zM4.283 109.69l18.389-8.901-18.559-8.952v16.984a2.35 2.35 0 0 0 .17.869m39.026 3.676H6.481c-2.506 0-4.546-2.039-4.546-4.545V59.055c0-2.507 2.04-4.546 4.546-4.546h36.828c2.506 0 4.546 2.039 4.546 4.546v49.766c0 2.506-2.04 4.545-4.546 4.545"/><path d="M9.736 80.384h31.476v2.178H9.736zm0-6.16h25.315v2.178H9.736zm14.313-11.175H10.825v3.366h13.224zm.225 5.544H10.601c-1.077 0-1.954-.876-1.954-1.953v-3.817c0-1.076.877-1.952 1.954-1.952h13.673c1.077 0 1.953.876 1.953 1.952v3.817c0 1.077-.876 1.953-1.953 1.953m76.777-11.906H64.223a2.37 2.37 0 0 0-2.368 2.368v28.722h41.564V59.055a2.37 2.37 0 0 0-2.368-2.368m0 54.501c.241 0 .47-.046.689-.114l-18.822-9.078-18.939 9.168.244.024zm-15.632-10.403l17.912 8.64a2.32 2.32 0 0 0 .088-.604v-16.75zm-2.504-1.207l19.878-9.623H62.965zM62.026 109.69l18.388-8.902-18.559-8.951v16.984c0 .307.063.599.171.869m39.025 3.676H64.223c-2.506 0-4.546-2.039-4.546-4.545V59.055c0-2.507 2.04-4.546 4.546-4.546h36.828a4.55 4.55 0 0 1 4.546 4.546v49.766a4.55 4.55 0 0 1-4.546 4.545"/><path d="M67.479 80.384h31.475v2.178H67.479zm0-6.16h25.315v2.178H67.479zm14.313-11.175H68.568v3.366h13.224zm.225 5.544H68.343c-1.076 0-1.953-.876-1.953-1.953v-3.817c0-1.076.877-1.952 1.953-1.952h13.674c1.076 0 1.953.876 1.953 1.952v3.817c0 1.077-.877 1.953-1.953 1.953m75.776-11.906h-36.827a2.37 2.37 0 0 0-2.368 2.368v28.722h41.563V59.055a2.37 2.37 0 0 0-2.368-2.368m0 54.501c.241 0 .47-.046.689-.114l-18.822-9.078-18.939 9.168.245.024zm-15.632-10.403l17.912 8.64a2.32 2.32 0 0 0 .088-.604V92.072zm-2.503-1.207l19.878-9.623h-39.829zm-20.89 10.112l18.389-8.902-18.559-8.951v16.984a2.35 2.35 0 0 0 .17.869m39.025 3.676h-36.827a4.55 4.55 0 0 1-4.546-4.545V59.055a4.55 4.55 0 0 1 4.546-4.546h36.827a4.55 4.55 0 0 1 4.546 4.546v49.766a4.55 4.55 0 0 1-4.546 4.545"/><path d="M124.222 80.384h31.476v2.178h-31.476zm0-6.16h25.314v2.178h-25.314zm14.312-11.175H125.31v3.366h13.224zm.225 5.544h-13.673c-1.077 0-1.953-.876-1.953-1.953v-3.817c0-1.076.876-1.952 1.953-1.952h13.673c1.077 0 1.953.876 1.953 1.952v3.817c0 1.077-.876 1.953-1.953 1.953"/></g></svg>