<svg width="59" height="59" viewBox="0 0 59 59" xmlns="http://www.w3.org/2000/svg"><g transform="translate(.5 .5)" fill="none" fill-rule="evenodd"><circle fill="#FFF" cx="29" cy="29" r="29"/><g transform="translate(8.188 8.188)" fill="#1F2B34" fill-rule="nonzero"><path d="M21.3122569,42.3117647 C15.6164325,42.3117647 10.2859943,40.0448202 6.30118514,35.9250284 C2.34741281,31.8385846 0.22107531,26.43598 0.314731764,20.715138 C0.321294016,20.2948154 0.475505878,19.8895059 0.749499305,19.5725922 C0.984098224,19.3007177 1.30728019,19.0888954 1.65179315,19.000508 C3.20048452,18.6035376 4.50965896,17.5410486 5.24790701,16.0866276 C5.65640874,15.2826867 6.59152014,14.9173948 7.42493659,15.237639 C11.2884543,16.7287813 14.969951,13.7315093 14.969951,9.95361009 L14.9371393,9.63670073 L14.8994067,9.33980876 C14.8469086,8.84945088 14.9994805,8.35738503 15.3177486,7.98376682 C15.6360168,7.61181816 16.0937532,7.38999142 16.5793389,7.37163076 C19.0877779,7.2849001 21.2403224,5.5002092 21.8127607,3.0316817 C22.255718,1.13024259 24.1800851,-0.0423207842 26.1079381,0.408027924 C35.647877,2.66476727 42.3117647,11.1614003 42.3117647,21.072317 C42.3117647,32.784714 32.8915213,42.3117647 21.3125597,42.3117647 L21.3122569,42.3117647 Z M3.83545848,21.9978227 C4.05201068,26.2993425 5.78771257,30.3224633 8.79631068,33.4296858 C12.1184689,36.8639843 16.5626567,38.752144 21.3122569,38.752144 C30.9622315,38.752144 38.8121544,30.8211902 38.8121544,21.0703956 C38.8121544,12.8226136 33.2620645,5.75034125 25.3151253,3.87242941 L25.1986469,3.89578076 C24.4177285,7.29335796 21.7485615,9.91210132 18.4427827,10.6926431 C18.0703744,15.4395158 14.154325,19.1825297 9.39338527,19.1825297 C8.79293401,19.1825297 8.18920686,19.1174817 7.58547972,18.9873814 C6.6191803,20.3134058 5.3247893,21.3525341 3.83678563,21.9980183 L3.83545848,21.9978227 Z"/><path d="M27.3117647 14.8117647C27.3117647 16.1914447 26.1914447 17.3117647 24.8117647 17.3117647 23.4305247 17.3117647 22.3117647 16.1914447 22.3117647 14.8117647 22.3117647 13.4305247 23.4305247 12.3117647 24.8117647 12.3117647 26.1914447 12.3117647 27.3117647 13.4305247 27.3117647 14.8117647M15.3117647 24.8117647C15.3117647 26.1914447 14.1930047 27.3117647 12.8117647 27.3117647 11.4305247 27.3117647 10.3117647 26.1914447 10.3117647 24.8117647 10.3117647 23.4305247 11.4305247 22.3117647 12.8117647 22.3117647 14.1930047 22.3117647 15.3117647 23.4305247 15.3117647 24.8117647M29.3117647 29.8117647C29.3117647 31.1930047 28.1930047 32.3117647 26.8117647 32.3117647 25.4320847 32.3117647 24.3117647 31.1930047 24.3117647 29.8117647 24.3117647 28.4305247 25.4320847 27.3117647 26.8117647 27.3117647 28.1930047 27.3117647 29.3117647 28.4305247 29.3117647 29.8117647M23.3117647 21.8117647C23.3117647 23.8117647 20.3117647 23.8117647 20.3117647 21.8117647 20.3117647 19.8117647 23.3117647 19.8117647 23.3117647 21.8117647M19.3117647 31.8117647C19.3117647 33.8117647 16.3117647 33.8117647 16.3117647 31.8117647 16.3117647 29.8117647 19.3117647 29.8117647 19.3117647 31.8117647M17.3117647 1.8122911C17.3117647 3.81158924 14.3117647 3.81158924 14.3117647 1.8122911 14.3117647-.18841076 17.3117647-.18841076 17.3117647 1.8122911M10.3117647 9.81176471C10.3117647 11.1914447 9.19300471 12.3117647 7.81176471 12.3117647 6.43052471 12.3117647 5.31176471 11.1914447 5.31176471 9.81176471 5.31176471 8.43052471 6.43052471 7.31176471 7.81176471 7.31176471 9.19300471 7.31176471 10.3117647 8.43052471 10.3117647 9.81176471M33.3117647 21.8117647C33.3117647 23.8117647 30.3117647 23.8117647 30.3117647 21.8117647 30.3117647 19.8117647 33.3117647 19.8117647 33.3117647 21.8117647"/></g></g></svg>