<svg width="35" height="34" viewBox="0 0 35 34" fill="none" xmlns="http://www.w3.org/2000/svg">
<path fill-rule="evenodd" clip-rule="evenodd" d="M17.5145 0C7.82942 0 0 7.79163 0 17.4309C0 25.1362 5.01658 31.6585 11.9759 33.9669C12.846 34.1405 13.1647 33.5919 13.1647 33.1304C13.1647 32.7263 13.136 31.3411 13.136 29.8979C8.26393 30.937 7.24936 27.82 7.24936 27.82C6.46638 25.7999 5.30626 25.2807 5.30626 25.2807C3.71162 24.2129 5.42241 24.2129 5.42241 24.2129C7.19128 24.3283 8.11946 26.0021 8.11946 26.0021C9.68505 28.6569 12.2079 27.9068 13.2228 27.445C13.3676 26.3194 13.8319 25.5403 14.3248 25.1075C10.439 24.7034 6.35059 23.2028 6.35059 16.5073C6.35059 14.6026 7.04609 13.0443 8.14814 11.8323C7.97426 11.3995 7.36516 9.60992 8.32237 7.2147C8.32237 7.2147 9.80121 6.75287 13.1357 9.00394C14.5633 8.62239 16.0356 8.42829 17.5145 8.42665C18.9933 8.42665 20.5008 8.62888 21.8929 9.00394C25.2277 6.75287 26.7066 7.2147 26.7066 7.2147C27.6638 9.60992 27.0543 11.3995 26.8805 11.8323C28.0116 13.0443 28.6784 14.6026 28.6784 16.5073C28.6784 23.2028 24.59 24.6743 20.6751 25.1075C21.3132 25.6557 21.8639 26.6945 21.8639 28.3396C21.8639 30.6771 21.8352 32.5531 21.8352 33.13C21.8352 33.5919 22.1543 34.1405 23.024 33.9673C29.9833 31.6581 34.9999 25.1362 34.9999 17.4309C35.0286 7.79163 27.1705 0 17.5145 0Z" fill="#1E1E1E"/>
</svg>
