<svg width="58" height="44" viewBox="0 0 58 44" fill="none" xmlns="http://www.w3.org/2000/svg">
<path d="M18.8415 39.1448L52.6504 39.1448L52.6504 5.00006L18.8415 5.00006L18.8415 39.1448Z" stroke="#7BB3FF" stroke-width="2" stroke-miterlimit="10"/>
<path d="M18.8497 39.1447C28.1858 39.1447 35.7542 31.5012 35.7542 22.0724C35.7542 12.6436 28.1858 5 18.8497 5C9.51368 5 1.94531 12.6436 1.94531 22.0724C1.94531 31.5012 9.51368 39.1447 18.8497 39.1447Z" stroke="#1264FF" stroke-width="2" stroke-miterlimit="10"/>
<path d="M53.1114 7.90039C54.7371 7.90039 56.0549 6.56946 56.0549 4.92767C56.0549 3.28589 54.7371 1.95496 53.1114 1.95496C51.4858 1.95496 50.168 3.28589 50.168 4.92767C50.168 6.56946 51.4858 7.90039 53.1114 7.90039Z" fill="white" stroke="#7BB3FF" stroke-width="2" stroke-miterlimit="10"/>
<path d="M18.8497 42.045C20.4754 42.045 21.7932 40.7141 21.7932 39.0723C21.7932 37.4305 20.4754 36.0996 18.8497 36.0996C17.2241 36.0996 15.9062 37.4305 15.9062 39.0723C15.9062 40.7141 17.2241 42.045 18.8497 42.045Z" fill="white" stroke="#7BB3FF" stroke-width="2" stroke-miterlimit="10"/>
<path d="M53.1114 42.045C54.7371 42.045 56.0549 40.7141 56.0549 39.0723C56.0549 37.4305 54.7371 36.0996 53.1114 36.0996C51.4858 36.0996 50.168 37.4305 50.168 39.0723C50.168 40.7141 51.4858 42.045 53.1114 42.045Z" fill="white" stroke="#7BB3FF" stroke-width="2" stroke-miterlimit="10"/>
<path d="M18.8497 7.90039C20.4754 7.90039 21.7932 6.56946 21.7932 4.92767C21.7932 3.28589 20.4754 1.95496 18.8497 1.95496C17.2241 1.95496 15.9062 3.28589 15.9062 4.92767C15.9062 6.56946 17.2241 7.90039 18.8497 7.90039Z" fill="white" stroke="#7BB3FF" stroke-width="2" stroke-miterlimit="10"/>
</svg>
