<svg width="44" height="42" viewBox="0 0 44 42" fill="none" xmlns="http://www.w3.org/2000/svg">
<path d="M29.5849 21.21H21.2666V13.5269" stroke="#0052ED" stroke-width="2" stroke-miterlimit="10"/>
<path d="M12.9434 21.21H21.2675V28.8931" stroke="#0052ED" stroke-width="2" stroke-miterlimit="10"/>
<path d="M40.2327 12.7779V37.6861H3.76074V3.03125H30.9046L40.2327 12.7779Z" stroke="#498DFF" stroke-width="2" stroke-miterlimit="10"/>
<path d="M30.9043 3.03125V12.8426H40.2324" stroke="#498DFF" stroke-width="2" stroke-miterlimit="10"/>
<path d="M3.76068 39.6148C4.91484 39.6148 5.85047 38.7512 5.85047 37.6859C5.85047 36.6207 4.91484 35.7571 3.76068 35.7571C2.60653 35.7571 1.6709 36.6207 1.6709 37.6859C1.6709 38.7512 2.60653 39.6148 3.76068 39.6148Z" fill="white" stroke="#498DFF" stroke-width="2" stroke-miterlimit="10"/>
<path d="M40.2333 40.17C41.3875 40.17 42.3231 39.3064 42.3231 38.2411C42.3231 37.1758 41.3875 36.3123 40.2333 36.3123C39.0792 36.3123 38.1436 37.1758 38.1436 38.2411C38.1436 39.3064 39.0792 40.17 40.2333 40.17Z" fill="white" stroke="#498DFF" stroke-width="2" stroke-miterlimit="10"/>
<path d="M3.76068 5.47735C4.91484 5.47735 5.85047 4.61377 5.85047 3.54849C5.85047 2.48321 4.91484 1.61963 3.76068 1.61963C2.60653 1.61963 1.6709 2.48321 1.6709 3.54849C1.6709 4.61377 2.60653 5.47735 3.76068 5.47735Z" fill="white" stroke="#498DFF" stroke-width="2" stroke-miterlimit="10"/>
</svg>
