<svg width="204" height="52" viewBox="0 0 204 52" fill="none" xmlns="http://www.w3.org/2000/svg">
<path d="M14.9729 0L0 8.65198V25.9597L14.9729 17.3077L29.9495 8.65198L14.9729 0Z" fill="#84ADFF"/>
<path d="M14.9729 34.6117V17.3077L0 25.9597V43.2675L14.9729 51.9194L29.9495 43.2675V25.9597L14.9729 34.6117Z" fill="#5786FF"/>
<path d="M29.9493 8.65198L14.9727 17.3077L29.9493 25.9597V43.2674L44.9184 34.6117V17.3077L29.9493 8.65198Z" fill="#EC2924"/>
<path d="M115.058 17.2926H109.634V37.1015H115.058V17.2926Z" fill="#000918"/>
<path d="M115.254 8.1759H109.438V13.6051H115.254V8.1759Z" fill="#000918"/>
<path d="M123.055 10.8319V17.2926H119.413V21.9246H123.055V37.1015H128.479V21.9246H132.831V17.2926H128.479V12.8117H132.831V8.1759H127.645L123.055 10.8319Z" fill="#000918"/>
<path d="M141.025 17.0924L136.432 19.7485V34.6457L141.025 37.3018H149.457L154.05 34.6457V19.7485L149.457 17.0924H141.025ZM148.623 32.6622H141.852V21.7244H148.623V32.6622Z" fill="#000918"/>
<path d="M165.403 18.921L162.584 17.2926H159.983V37.1015H165.407V21.9246H172.216V17.2926H168.227L165.403 18.921Z" fill="#000918"/>
<path d="M94.5433 17.0924L91.3804 18.921L88.2137 17.0924H86.085V37.1015H91.5087V21.7282H98.2761V37.1015H103.7V19.7485L99.1065 17.0924H94.5433Z" fill="#000918"/>
<path d="M74.7244 32.6621H67.957V17.2926H62.5332V34.6457L67.1266 37.3017H71.9087L74.7168 35.6733L74.7206 35.6771L74.7244 35.6733V35.6771L77.5325 37.3017H80.1481V17.2926H74.7244V32.6621Z" fill="#000918"/>
<path d="M199.407 17.0924H195.606L191.888 19.2308L188.205 17.0924H184.408L181.596 18.717L178.788 17.0924H176.172V37.1015H181.596V21.7282H187.378V37.1015H192.798V21.7282H198.576V37.1015H204V19.7485L199.407 17.0924Z" fill="#000918"/>
</svg>
