<?xml version="1.0" encoding="utf-8"?>
<!-- Generator: Adobe Illustrator 27.4.1, SVG Export Plug-In . SVG Version: 6.00 Build 0)  -->
<svg version="1.1" id="Layer_1" xmlns="http://www.w3.org/2000/svg" xmlns:xlink="http://www.w3.org/1999/xlink" x="0px" y="0px"
	 viewBox="0 0 165 165" style="enable-background:new 0 0 165 165;" xml:space="preserve">
<style type="text/css">
	.st0{fill:none;stroke:#0052ED;stroke-width:2.2208;stroke-miterlimit:10;}
</style>
<g>
	<g>
		<line class="st0" x1="731.2" y1="112.8" x2="787.8" y2="112.8"/>
		<line class="st0" x1="731.2" y1="135.8" x2="768.1" y2="135.8"/>
	</g>
	<path class="st0" d="M706.4,142.8h-22.4c-3.6,0-6.6-3-6.6-6.6v-22.4c0-3.6,3-6.6,6.6-6.6h22.4c3.6,0,6.6,3,6.6,6.6v22.4
		C713,139.9,710,142.8,706.4,142.8z"/>
</g>
<path class="st0" d="M127.7,47.2v56.3c0,3.8-3.2,7-7,7H46.3c-3.8,0-7-3.2-7-7V47.2c0-3.9,3.2-7,7-7h74.4
	C124.5,40.2,127.7,43.4,127.7,47.2z"/>
<line class="st0" x1="39.7" y1="93" x2="127.2" y2="93"/>
<line class="st0" x1="732" y1="150.2" x2="732" y2="99.8"/>
<line class="st0" x1="83.8" y1="92.6" x2="83.8" y2="41.2"/>
</svg>
