<svg xmlns="http://www.w3.org/2000/svg" xmlns:xlink="http://www.w3.org/1999/xlink" width="220" height="220" xmlns:v="https://vecta.io/nano"><defs><clipPath id="A"><path d="M0 165h165V0H0z"/></clipPath><path id="B" d="M134.677 104.017H30.598a1.09 1.09 0 0 0-1.089 1.089 1.09 1.09 0 0 0 1.089 1.089h104.079a1.09 1.09 0 0 0 1.089-1.089 1.09 1.09 0 0 0-1.089-1.089"/></defs><g clip-path="url(#A)" transform="matrix(1.333333 0 0 -1.333333 0 220)" fill="#fff"><use xlink:href="#B"/><path d="M134.677 94.037H30.598a1.09 1.09 0 0 0-1.089 1.089 1.09 1.09 0 0 0 1.089 1.089h104.079a1.09 1.09 0 0 0 1.089-1.089 1.09 1.09 0 0 0-1.089-1.089m-19.829-10.456H50.426a1.09 1.09 0 0 0-1.089 1.089 1.09 1.09 0 0 0 1.089 1.089h64.422a1.09 1.09 0 0 0 1.089-1.089 1.09 1.09 0 0 0-1.089-1.089M96.161 61.993H85.509a1.09 1.09 0 0 0-1.089 1.089 1.09 1.09 0 0 0 1.089 1.089h10.652a1.09 1.09 0 0 0 1.089-1.089 1.09 1.09 0 0 0-1.089-1.089m-42.813 4.313c-.141 0-.255-.114-.255-.256v-5.936c0-.142.114-.256.255-.256h21.271c.141 0 .255.114.255.256v5.936c0 .142-.114.256-.255.256zm21.271-8.626H53.348a2.44 2.44 0 0 0-2.433 2.434v5.936a2.44 2.44 0 0 0 2.433 2.434h21.271a2.44 2.44 0 0 0 2.433-2.434v-5.936a2.44 2.44 0 0 0-2.433-2.434"/><path d="M112.082 61.993H101.43a1.09 1.09 0 0 0-1.089 1.089 1.09 1.09 0 0 0 1.089 1.089h10.652a1.09 1.09 0 0 0 1.089-1.089 1.09 1.09 0 0 0-1.089-1.089"/><path d="M109.824 58.31c-.278 0-.558.106-.77.319a1.09 1.09 0 0 0 0 1.539l2.676 2.676-3.15 3.152c-.426.424-.426 1.114 0 1.539a1.09 1.09 0 0 0 1.539 0l4.691-4.691-4.216-4.215c-.212-.213-.492-.319-.77-.319"/></g></svg>