<?xml version="1.0" ?>
<!-- Uploaded to: SVG Repo, www.svgrepo.com, Generator: SVG Repo Mixer Tools -->
<svg fill="#fff" width="800px" height="800px" viewBox="0 0 256 256" id="Layer_1" version="1.1" xml:space="preserve" xmlns="http://www.w3.org/2000/svg" xmlns:xlink="http://www.w3.org/1999/xlink">
<g>
<path d="M127.9,186.4c-32.1,0-58.3-26.2-58.3-58.3c0-28.4,20-52.2,47.4-57.3V60.5c-33.1,5.2-57.6,33.6-57.6,67.6   c0,37.7,30.7,68.5,68.5,68.5c34,0,62.4-24.5,67.6-57.6h-10.3C180,166.3,156.3,186.4,127.9,186.4z"/>
<path d="M134.9,60l-5.6-0.6v67.3h67.3l-0.6-5.6C192.8,89,167,63.2,134.9,60z M139.4,116.6V71c22.9,4.6,41,22.7,45.6,45.6H139.4z"/>
<path d="M237.7,204.9l-0.1-8.6c0-32.8,0.1-126.7,0-167.7c0-14.8-11.5-26-26.5-26l-61.6,0l-22.9,0c-26.3,0-53.5,0-80.2,0   c-7.2,0-14.4,3.1-19.8,8.6c-5.3,5.3-8.2,12.3-8.2,19.6c0.2,58.1,0.2,95.3,0.1,142.4l0,50.9c0,7.9,3,15.3,8.5,20.8   c5.5,5.5,12.9,8.5,20.8,8.5l84.6,0c26.1,0,52.8,0,79.2-0.1c2.9,0,5.8-0.5,8.3-1.3c10.5-3.6,17.7-13.7,17.9-25   C237.7,219.6,237.7,212.1,237.7,204.9z M227.4,226.8c-0.1,7-4.5,13.3-11,15.5c-1.4,0.5-3.1,0.8-5,0.8c-26.3,0.1-53,0.1-79.2,0.1   l-84.6,0c-5.2,0-10.1-1.9-13.6-5.5c-3.5-3.5-5.5-8.3-5.5-13.5l0-50.9c0-47.1,0.1-84.3-0.1-142.4c0-4.6,1.8-9,5.2-12.4   c3.5-3.5,8.1-5.5,12.6-5.5c26.7,0,53.9,0,80.2,0l22.9,0l61.6,0c9.6,0,16.3,6.5,16.3,15.8c0.1,40.9,0,134.9,0,167.7l0.1,8.6   C227.5,212.1,227.5,219.5,227.4,226.8z"/>
</g>
</svg>